<svg id="Layer_1" data-name="Layer 1" xmlns="http://www.w3.org/2000/svg" viewBox="0 0 48 45.85"><path d="M30.79,2,33.18,7a4,4,0,0,0,3.09,2.24l5.53.7-1,5.49A4,4,0,0,0,42,19.1L46,22.91,42,26.75a4,4,0,0,0-1.18,3.63l1,5.47-5.54.72a4,4,0,0,0-3.09,2.24l-2.37,5-4.9-2.68a4,4,0,0,0-3.82,0l-4.88,2.69-2.39-5a4,4,0,0,0-3.09-2.24l-5.53-.7,1-5.49a4,4,0,0,0-1.18-3.63L2,22.94,6.05,19.1a4,4,0,0,0,1.18-3.63L6.19,10l5.54-.72A4,4,0,0,0,14.82,7L17.2,2l4.89,2.67a4,4,0,0,0,3.82,0L30.79,2M17.2,0a2,2,0,0,0-1.8,1.13L13,6.18A2,2,0,0,1,11.48,7.3L5.93,8a2,2,0,0,0-1.69,2.33l1,5.49a2,2,0,0,1-.59,1.81L.62,21.48a2,2,0,0,0,0,2.89l4.06,3.84A2,2,0,0,1,5.27,30l-1,5.49a2,2,0,0,0,1.69,2.33l5.54.72A2,2,0,0,1,13,39.67l2.39,5a2,2,0,0,0,1.8,1.13,2.06,2.06,0,0,0,.95-.24l4.9-2.68a1.93,1.93,0,0,1,1.9,0l4.9,2.68a2.06,2.06,0,0,0,.95.24,2,2,0,0,0,1.8-1.13l2.39-5a2,2,0,0,1,1.53-1.12l5.55-.72a2,2,0,0,0,1.69-2.33l-1-5.49a2,2,0,0,1,.59-1.8l4.06-3.84a2,2,0,0,0,0-2.89l-4.06-3.83a2,2,0,0,1-.59-1.81l1-5.49A2,2,0,0,0,42.07,8L36.53,7.3A2,2,0,0,1,35,6.18l-2.39-5A2,2,0,0,0,30.8,0a2.06,2.06,0,0,0-.95.24L25,2.92a1.93,1.93,0,0,1-1.9,0L18.15.24A2.06,2.06,0,0,0,17.2,0Z"/><polygon points="17.29 18.63 16.2 18.63 16.2 25.38 11.69 18.63 10.53 18.63 10.53 27.22 11.62 27.22 11.62 20.47 16.13 27.22 17.29 27.22 17.29 18.63"/><polygon points="25.44 18.63 19.23 18.63 19.23 27.22 25.64 27.22 25.64 26.21 20.36 26.21 20.36 23.28 25.12 23.28 25.12 22.27 20.36 22.27 20.36 19.64 25.44 19.64 25.44 18.63"/><path d="M37.47,18.63H36.33L35,24.15c-.17.7-.31,1.33-.42,1.87a23.39,23.39,0,0,0-.67-3l-1.23-4.35H31.29l-1.64,5.8q-.06.21-.39,1.59c-.1-.58-.22-1.17-.36-1.76l-1.31-5.63H26.43l2.28,8.59h1.16l1.82-6.54c.08-.28.16-.62.25-1,0,.12.12.46.27,1L34,27.22h1.1l2.35-8.59Z"/></svg>